<svg width="15" height="15" viewBox="0 0 15 15" fill="none" xmlns="http://www.w3.org/2000/svg">
<path d="M8.4 3.9C8.4 3.40295 7.99704 3 7.5 3C7.00296 3 6.6 3.40295 6.6 3.9V6.6H3.9C3.40295 6.6 3 7.00296 3 7.5C3 7.99704 3.40295 8.4 3.9 8.4H6.6V11.1C6.6 11.597 7.00296 12 7.5 12C7.99704 12 8.4 11.597 8.4 11.1V8.4H11.1C11.597 8.4 12 7.99704 12 7.5C12 7.00296 11.597 6.6 11.1 6.6H8.4V3.9Z" fill="#284B63"/>
<path fill-rule="evenodd" clip-rule="evenodd" d="M7.5 0C3.35787 0 0 3.35787 0 7.5C0 11.6422 3.35787 15 7.5 15C11.6422 15 15 11.6422 15 7.5C15 3.35787 11.6422 0 7.5 0ZM1.04651 7.5C1.04651 3.93584 3.93584 1.04651 7.5 1.04651C11.0641 1.04651 13.9535 3.93584 13.9535 7.5C13.9535 11.0641 11.0641 13.9535 7.5 13.9535C3.93584 13.9535 1.04651 11.0641 1.04651 7.5Z" fill="#284B63"/>
</svg>
