<svg width="15" height="15" viewBox="0 0 15 15" fill="none" xmlns="http://www.w3.org/2000/svg">
<path d="M7.5 0C11.6421 0 15 3.35786 15 7.5C15 11.6421 11.6421 15 7.5 15C3.35786 15 0 11.6421 0 7.5C0 3.35786 3.35786 0 7.5 0Z" fill="#FF0000" fill-opacity="0.7"/>
<path d="M7.49992 4.16675C7.73004 4.16675 7.91659 4.3533 7.91659 4.58341V8.75008C7.91659 8.9802 7.73004 9.16675 7.49992 9.16675C7.2698 9.16675 7.08325 8.9802 7.08325 8.75008V4.58341C7.08325 4.3533 7.2698 4.16675 7.49992 4.16675Z" fill="white"/>
<path d="M7.49992 10C7.73004 10 7.91659 10.1865 7.91659 10.4167C7.91659 10.6468 7.73004 10.8333 7.49992 10.8333C7.2698 10.8333 7.08325 10.6468 7.08325 10.4167C7.08325 10.1865 7.2698 10 7.49992 10Z" fill="white"/>
</svg>
