<svg width="15" height="15" viewBox="0 0 15 15" fill="none" xmlns="http://www.w3.org/2000/svg">
<path d="M10.6839 7.26611H6.12988V7.73489H10.6839V7.26611Z" fill="white"/>
<path d="M10.6837 13.0518H8.20386V1.94995H10.6837V2.41873H8.67264V12.583H10.6837V13.0518Z" fill="white"/>
<path d="M6.07852 7.28474C6.07852 8.89425 4.77376 10.199 3.16426 10.199C1.55476 10.199 0.25 8.89425 0.25 7.28474C0.25 5.67524 1.55476 4.37048 3.16426 4.37048C4.77376 4.37048 6.07852 5.67524 6.07852 7.28474Z" stroke="white" stroke-width="0.5"/>
<path d="M3.16445 6.91935C3.62606 6.91935 4.00028 6.54513 4.00028 6.08351C4.00028 5.6219 3.62606 5.24768 3.16445 5.24768C2.70283 5.24768 2.32861 5.6219 2.32861 6.08351C2.32861 6.54513 2.70283 6.91935 3.16445 6.91935Z" fill="white"/>
<path d="M3.12731 8.85119L2.32851 7.10522C2.32851 7.10522 1.49268 7.12374 1.49268 7.88527V8.85119H3.12731Z" fill="white"/>
<path d="M3.20142 8.85119L4.00022 7.10522C4.00022 7.10522 4.83605 7.12374 4.83605 7.88527V8.85119H3.20142Z" fill="white"/>
<path d="M2.65308 7.1864L3.16428 8.32413L3.67548 7.1864H2.65308Z" fill="white"/>
<path d="M15 5.79321H11.5857V9.20757H15V5.79321Z" fill="white"/>
<path d="M15 0H11.5857V3.41435H15V0Z" fill="white"/>
<path d="M15 11.5859H11.5857V15.0003H15V11.5859Z" fill="white"/>
</svg>
