<svg width="15" height="13" viewBox="0 0 15 13" fill="none" xmlns="http://www.w3.org/2000/svg">
<path d="M4.46925 1.92071L4.73086 1.85243V1.58205V0.383421C4.93825 0.362583 5.14656 0.350366 5.35714 0.350366C5.56773 0.350366 5.77604 0.362577 5.98342 0.383415V1.58205V1.85243L6.24504 1.92071C6.56888 2.00523 6.87444 2.13362 7.15587 2.30063L7.38971 2.4394L7.58198 2.24713L8.43189 1.39722C8.5928 1.52912 8.74843 1.66807 8.89751 1.81715C9.04658 1.96622 9.18554 2.12186 9.31744 2.28276L8.46752 3.13267L8.27525 3.32494L8.41402 3.55878C8.58103 3.84022 8.70942 4.14577 8.79394 4.46961L8.86222 4.73123H9.1326H10.3312C10.3521 4.93862 10.3643 5.14693 10.3643 5.35751C10.3643 5.5681 10.3521 5.7764 10.3312 5.98379H9.1326H8.86222L8.79394 6.24541C8.70942 6.56925 8.58103 6.8748 8.41402 7.15624L8.27525 7.39007L8.46752 7.58234L9.31744 8.43225C9.18553 8.59316 9.04658 8.7488 8.89751 8.89787C8.74843 9.04695 8.5928 9.18591 8.43189 9.3178L7.58198 8.46789L7.38971 8.27562L7.15587 8.41439C6.87444 8.5814 6.56888 8.70979 6.24504 8.79431L5.98342 8.86258V9.13296V10.3316C5.77603 10.3524 5.56772 10.3647 5.35714 10.3647C5.14656 10.3647 4.93825 10.3524 4.73086 10.3316V9.13296V8.86258L4.46925 8.79431C4.1454 8.70979 3.83985 8.5814 3.55842 8.41439L3.32458 8.27562L3.13231 8.46789L2.2824 9.3178C2.12149 9.1859 1.96585 9.04694 1.81678 8.89787C1.6677 8.74879 1.52874 8.59316 1.39685 8.43226L2.24676 7.58234L2.43903 7.39007L2.30027 7.15624C2.13325 6.8748 2.00486 6.56925 1.92034 6.24541L1.85207 5.98379H1.58169H0.383055C0.362216 5.7764 0.35 5.56809 0.35 5.35751C0.35 5.14692 0.362211 4.93861 0.383049 4.73123H1.58169H1.85207L1.92034 4.46961C2.00486 4.14577 2.13325 3.84022 2.30027 3.55878L2.43903 3.32494L2.24676 3.13267L1.39685 2.28276C1.52875 2.12186 1.66771 1.96622 1.81678 1.81715C1.96586 1.66807 2.12149 1.52911 2.28239 1.39721L3.13231 2.24713L3.32458 2.4394L3.55842 2.30063C3.83985 2.13362 4.1454 2.00523 4.46925 1.92071ZM7.6597 5.35751C7.6597 4.07428 6.64037 3.05495 5.35714 3.05495C4.07391 3.05495 3.05458 4.07428 3.05458 5.35751C3.05458 6.64074 4.07391 7.66007 5.35714 7.66007C6.64037 7.66007 7.6597 6.64074 7.6597 5.35751Z" stroke="white" stroke-width="0.7"/>
<path d="M11.6852 8.22841L11.8721 8.17964V7.98651V7.40496C11.962 7.39729 12.0521 7.39294 12.1428 7.39294C12.2335 7.39294 12.3236 7.39729 12.4135 7.40495V7.98651V8.17964L12.6003 8.22841C12.7673 8.27198 12.9248 8.33815 13.0698 8.42422L13.2368 8.52334L13.3741 8.386L13.7866 7.97359C13.8553 8.03174 13.922 8.09246 13.9862 8.15668C14.0504 8.22089 14.1111 8.28754 14.1693 8.35631L13.7569 8.76873L13.6195 8.90606L13.7187 9.07309C13.8047 9.21812 13.8709 9.37559 13.9145 9.54254L13.9632 9.7294H14.1564H14.7379C14.7456 9.81931 14.7499 9.90939 14.7499 10.0001C14.7499 10.0908 14.7456 10.1809 14.7379 10.2708H14.1564H13.9632L13.9145 10.4576C13.8709 10.6246 13.8047 10.7821 13.7187 10.9271L13.6195 11.0941L13.7569 11.2314L14.1693 11.6439C14.1111 11.7126 14.0504 11.7793 13.9862 11.8435C13.922 11.9077 13.8553 11.9684 13.7866 12.0266L13.3741 11.6142L13.2368 11.4768L13.0698 11.576C12.9248 11.662 12.7673 11.7282 12.6003 11.7718L12.4135 11.8205V12.0137V12.5952C12.3236 12.6029 12.2335 12.6072 12.1428 12.6072C12.0521 12.6072 11.962 12.6029 11.8721 12.5952V12.0137V11.8205L11.6852 11.7718C11.5183 11.7282 11.3608 11.662 11.2158 11.576L11.0488 11.4768L10.9114 11.6142L10.499 12.0266C10.4302 11.9684 10.3636 11.9077 10.2994 11.8435L10.1297 12.0132L10.2994 11.8435C10.2352 11.7793 10.1744 11.7126 10.1163 11.6439L10.5287 11.2314L10.666 11.0941L10.5669 10.9271C10.4809 10.7821 10.4147 10.6246 10.3711 10.4576L10.3223 10.2708H10.1292H9.54766C9.53999 10.1809 9.53564 10.0908 9.53564 10.0001C9.53564 9.90938 9.53999 9.81931 9.54765 9.7294H10.1292H10.3223L10.3711 9.54254C10.4147 9.37559 10.4809 9.21812 10.5669 9.07309L10.666 8.90606L10.5287 8.76873L10.1163 8.35631C10.1744 8.28754 10.2352 8.22089 10.2994 8.15668C10.3636 8.09246 10.4302 8.03174 10.499 7.97359L10.9114 8.386L11.0488 8.52334L11.2158 8.42422C11.3608 8.33815 11.5183 8.27198 11.6852 8.22841ZM13.4342 10.0001C13.4342 9.28072 12.8622 8.70872 12.1428 8.70872C11.4234 8.70872 10.8514 9.28072 10.8514 10.0001C10.8514 10.7195 11.4234 11.2915 12.1428 11.2915C12.8622 11.2915 13.4342 10.7195 13.4342 10.0001Z" stroke="white" stroke-width="0.5"/>
</svg>
