<svg width="12" height="15" viewBox="0 0 12 15" fill="none" xmlns="http://www.w3.org/2000/svg">
<path fill-rule="evenodd" clip-rule="evenodd" d="M9.75 4.5C10.1642 4.5 10.5 4.83579 10.5 5.25V12.75C10.5 13.9926 9.49264 15 8.25 15H3.75C2.50736 15 1.5 13.9926 1.5 12.75V5.25C1.5 4.83579 1.83579 4.5 2.25 4.5H9.75ZM9 6H3V12.75C3 13.1642 3.33579 13.5 3.75 13.5H8.25C8.66421 13.5 9 13.1642 9 12.75V6ZM3.75 0.75C3.75 0.335786 4.08579 0 4.5 0H7.5C7.91421 0 8.25 0.335786 8.25 0.75V1.5H11.25C11.6642 1.5 12 1.83579 12 2.25C12 2.66421 11.6642 3 11.25 3H0.75C0.335786 3 0 2.66421 0 2.25C0 1.83579 0.335786 1.5 0.75 1.5H3.75V0.75Z" fill="#284B63"/>
</svg>
