<svg width="30" height="30" viewBox="0 0 30 30" fill="none" xmlns="http://www.w3.org/2000/svg">
<path d="M28.125 0H1.875C0.838594 0 0 0.838594 0 1.875V5.625C0 6.66141 0.838594 7.5 1.875 7.5H28.125C29.1614 7.5 30 6.66141 30 5.625V1.875C30 0.838594 29.1614 0 28.125 0Z" fill="#284B63"/>
<path d="M1.875 11.25V28.125C1.875 29.1614 2.71359 30 3.75 30H26.25C27.2864 30 28.125 29.1614 28.125 28.125V11.25H1.875ZM18.75 18.75H11.25C10.2136 18.75 9.375 17.9114 9.375 16.875C9.375 15.8386 10.2136 15 11.25 15H18.75C19.7864 15 20.625 15.8386 20.625 16.875C20.625 17.9114 19.7864 18.75 18.75 18.75Z" fill="#284B63"/>
</svg>
