<svg width="12" height="15" viewBox="0 0 12 15" fill="none" xmlns="http://www.w3.org/2000/svg">
<path d="M8.09057 10.1L8.16319 10.17H8.26406H9.34708C9.79112 10.17 10.1261 10.3206 10.4121 10.6357C10.8745 11.152 11.102 12.0187 11.1973 12.8992C11.2755 13.6213 11.2613 14.3146 11.2373 14.75H0.289604C0.25534 14.3211 0.223437 13.6403 0.284328 12.9279C0.358362 12.0617 0.565661 11.2032 1.02079 10.675C1.3213 10.3307 1.69614 10.1615 2.20256 10.1615H3.3297H3.43023L3.50278 10.0919L3.98624 9.62805C4.48972 9.96729 5.08464 10.1615 5.71121 10.1615C6.38263 10.1615 7.00639 9.94263 7.53441 9.564L8.09057 10.1Z" fill="#284B63" stroke="#284B63" stroke-width="0.5"/>
<path d="M3.34989 6.76317L3.32765 6.57862L3.14452 6.54677C2.88792 6.50214 2.64923 6.2364 2.64923 5.86789C2.64923 5.65865 2.72645 5.47967 2.84107 5.35547H8.66494C8.77956 5.47967 8.85677 5.65865 8.85677 5.86789C8.85677 6.27847 8.57665 6.55164 8.29296 6.55164H8.29291H8.29286H8.29281H8.29276H8.29271H8.29265H8.2926H8.29255H8.2925H8.29245H8.2924H8.29235H8.2923H8.29225H8.2922H8.29215H8.2921H8.29205H8.292H8.29195H8.2919H8.29185H8.2918H8.29175H8.2917H8.29165H8.2916H8.29155H8.2915H8.29145H8.2914H8.29135H8.2913H8.29125H8.2912H8.29115H8.2911H8.29105H8.291H8.29095H8.2909H8.29085H8.2908H8.29075H8.2907H8.29065H8.2906H8.29055H8.2905H8.29045H8.2904H8.29035H8.2903H8.29025H8.2902H8.29015H8.2901H8.29005H8.29H8.28995H8.2899H8.28984H8.28979H8.28974H8.28969H8.28964H8.28959H8.28954H8.28949H8.28944H8.28939H8.28934H8.28929H8.28924H8.28919H8.28914H8.28909H8.28904H8.28899H8.28894H8.28889H8.28884H8.28879H8.28874H8.28869H8.28864H8.28859H8.28854H8.28849H8.28844H8.28839H8.28834H8.28829H8.28824H8.28819H8.28814H8.28809H8.28804H8.28799H8.28794H8.28789H8.28784H8.28779H8.28774H8.28769H8.28764H8.28759H8.28754H8.28749H8.28744H8.28739H8.28734H8.28729H8.28724H8.28719H8.28714H8.28709H8.28704H8.28699H8.28694H8.28689H8.28684H8.28679H8.28674H8.28669H8.28664H8.28659H8.28654H8.28648H8.28643H8.28638H8.28633H8.28628H8.28623H8.28618H8.28613H8.28608H8.28603H8.28598H8.28593H8.28588H8.28583H8.28578H8.28573H8.28568H8.28563H8.28558H8.28553H8.28548H8.28543H8.28538H8.28533H8.28528H8.28523H8.28518H8.28513H8.28508H8.28503H8.28498H8.28493H8.28488H8.28483H8.28478H8.28473H8.28468H8.28463H8.28458H8.28453H8.28448H8.28443H8.28438H8.28433H8.28428H8.28423H8.28418H8.28413H8.28408H8.28403H8.28398H8.28393H8.28388H8.28383H8.28378H8.28373H8.28368H8.28363H8.28358H8.28353H8.28348H8.28343H8.28338H8.28333H8.28328H8.28323H8.28318H8.28313H8.28308H8.28303H8.28298H8.28293H8.28288H8.28282H8.28277H8.28272H8.28267H8.28262H8.28257H8.28252H8.28247H8.28242H8.28237H8.28232H8.28227H8.28222H8.28217H8.28212H8.28207H8.28202H8.28197H8.28192H8.28187H8.28182H8.28177H8.28172H8.28167H8.28162H8.28157H8.28152H8.28147H8.28142H8.28137H8.28132H8.28127H8.28122H8.28117H8.28112H8.28107H8.28102H8.28097H8.28092H8.28087H8.28082H8.28077H8.28072H8.28067H8.28062H8.28057H8.28052H8.28047H8.28042H8.28037H8.28032H8.28027H8.28022H8.28017H8.28012H8.28007H8.28002H8.27997H8.27992H8.27987H8.27982H8.27977H8.27972H8.27967H8.27962H8.27957H8.27951H8.27946H8.27941H8.27936H8.27931H8.27926H8.27921H8.27916H8.27911H8.27906H8.27901H8.27896H8.27891H8.27886H8.27881H8.27876H8.27871H8.27866H8.27861H8.27856H8.27851H8.27846H8.27841H8.27836H8.27831H8.27826H8.27821H8.27816H8.27811H8.27806H8.27801H8.27796H8.27791H8.27786H8.27781H8.27776H8.27771H8.27766H8.27761H8.27756H8.27751H8.27746H8.27741H8.27736H8.27731H8.27726H8.27721H8.27716H8.27711H8.27706H8.27701H8.27696H8.27691H8.27686H8.27681H8.27676H8.27671H8.27666H8.27661H8.27656H8.2765H8.27645H8.2764H8.27635H8.2763H8.27625H8.2762H8.27615H8.2761H8.27605H8.276H8.27595H8.2759H8.27585H8.2758H8.27575H8.2757H8.27565H8.2756H8.27555H8.2755H8.27545H8.2754H8.27535H8.2753H8.27525H8.2752H8.27515H8.2751H8.27505H8.275H8.27495H8.2749H8.27485H8.2748H8.27475H8.2747H8.27465H8.2746H8.27455H8.2745H8.27445H8.2744H8.27435H8.2743H8.27425H8.2742H8.27415H8.2741H8.27404H8.27399H8.27394H8.27389H8.27384H8.27379H8.27374H8.27369H8.27364H8.27359H8.27354H8.27349H8.27344H8.27339H8.27334H8.27329H8.27324H8.27319H8.27314H8.27309H8.27304H8.27299H8.27294H8.27289H8.27284H8.27279H8.27274H8.27269H8.27264H8.27259H8.27254H8.27249H8.27244H8.27239H8.27234H8.27229H8.27224H8.27219H8.27214H8.27209H8.27204H8.27199H8.27193H8.27188H8.27183H8.27178H8.27173H8.27168H8.27163H8.27158H8.27153H8.27148H8.27143H8.27138H8.27133H8.27128H8.27123H8.27118H8.27113H8.27108H8.27103H8.27098H8.27093H8.27088H8.27083H8.27078H8.27073H8.27068H8.27063H8.27058H8.27053H8.27048H8.27043H8.27038H8.27033H8.27028H8.27023H8.27018H8.27013H8.27007H8.27002H8.26997H8.26992H8.26987H8.26982H8.26977H8.26972H8.26967H8.26962H8.26957H8.26952H8.26947H8.26942H8.26937H8.26932H8.26927H8.26922H8.26917H8.26912H8.26907H8.26902H8.26897H8.26892H8.26887H8.26882H8.26877H8.26872H8.26867H8.26862H8.26857H8.26852H8.26847H8.26841H8.26836H8.26831H8.26826H8.26821H8.26816H8.26811H8.26806H8.26801H8.26796H8.26791H8.26786H8.26781H8.26776H8.26771H8.26766H8.26761H8.26756H8.26751H8.26746H8.26741H8.26736H8.26731H8.26726H8.0429L8.01871 6.77469C7.94771 7.42953 7.67259 7.9952 7.28176 8.41872C7.18655 8.51392 7.10583 8.5938 7.02077 8.65758L7.0207 8.65748L7.01457 8.66238C6.90112 8.75314 6.77802 8.83049 6.6429 8.90204C6.35209 9.05504 6.03216 9.13869 5.68874 9.13869C5.34532 9.13869 5.02547 9.05506 4.73464 8.90207C4.59951 8.83052 4.47641 8.75316 4.36289 8.66236L4.36296 8.66227L4.35673 8.6576C4.27142 8.59361 4.1904 8.51339 4.09487 8.41785C3.69857 7.99709 3.42945 7.4235 3.34989 6.76317Z" fill="#284B63" stroke="#284B63" stroke-width="0.5"/>
<path d="M8.57933 3.37875L8.5793 3.37876L8.58051 3.38257L8.64053 3.57103L8.69599 3.74516H8.87874H9.11082V4.31598H8.19342H7.88503H3.75595H3.43899H2.68514H2.39545V3.74516H2.63374H2.81654L2.87197 3.57096L2.93193 3.3825L2.93196 3.38251L2.9331 3.37875C3.14237 2.68343 3.64807 1.97063 4.30263 1.50225V3.10967V3.34953C4.30263 3.35096 4.30263 3.35243 4.30263 3.35393C4.3026 3.38645 4.30255 3.43516 4.31653 3.49552C4.33639 3.60214 4.36972 3.72056 4.44361 3.83367C4.60069 4.09488 4.89472 4.26772 5.22082 4.26772H6.16314H6.3002C6.66005 4.26772 6.96329 4.05271 7.11308 3.76472L7.11311 3.76474L7.11492 3.76111C7.17682 3.63724 7.19866 3.51761 7.20877 3.40643L7.20979 3.39514V3.3838V3.38375V3.3837V3.38365V3.3836V3.38355V3.3835V3.38345V3.3834V3.38335V3.3833V3.38325V3.3832V3.38315V3.3831V3.38305V3.383V3.38295V3.3829V3.38285V3.38279V3.38274V3.38269V3.38264V3.38259V3.38254V3.38249V3.38244V3.38239V3.38234V3.38229V3.38224V3.38219V3.38214V3.38209V3.38204V3.38199V3.38194V3.38189V3.38184V3.38179V3.38174V3.38169V3.38164V3.38159V3.38153V3.38148V3.38143V3.38138V3.38133V3.38128V3.38123V3.38118V3.38113V3.38108V3.38103V3.38098V3.38093V3.38088V3.38082V3.38077V3.38072V3.38067V3.38062V3.38057V3.38052V3.38047V3.38042V3.38037V3.38032V3.38026V3.38021V3.38016V3.38011V3.38006V3.38001V3.37996V3.37991V3.37985V3.3798V3.37975V3.3797V3.37965V3.3796V3.37955V3.37949V3.37944V3.37939V3.37934V3.37929V3.37924V3.37918V3.37913V3.37908V3.37903V3.37898V3.37892V3.37887V3.37882V3.37877V3.37872V3.37866V3.37861V3.37856V3.37851V3.37846V3.3784V3.37835V3.3783V3.37825V3.37819V3.37814V3.37809V3.37804V3.37798V3.37793V3.37788V3.37782V3.37777V3.37772V3.37767V3.37761V3.37756V3.37751V3.37745V3.3774V3.37735V3.37729V3.37724V3.37719V3.37713V3.37708V3.37703V3.37697V3.37692V3.37687V3.37681V3.37676V3.3767V3.37665V3.3766V3.37654V3.37649V3.37644V3.37638V3.37633V3.37627V3.37622V3.37616V3.37611V3.37605V3.376V3.37595V3.37589V3.37584V3.37578V3.37573V3.37567V3.37562V3.37556V3.37551V3.37545V3.3754V3.37534V3.37529V3.37523V3.37518V3.37512V3.37506V3.37501V3.37495V3.3749V3.37484V3.37479V3.37473V3.37467V3.37462V3.37456V3.3745V3.37445V3.37439V3.37434V3.37428V3.37422V3.37417V3.37411V3.37405V3.374V3.37394V3.37388V3.37382V3.37377V3.37371V3.37365V3.3736V3.37354V3.37348V3.37342V3.37337V3.37331V3.37325V3.37319V3.37313V3.37308V3.37302V3.37296V3.3729V3.37284V3.37278V3.37273V3.37267V3.37261V3.37255V3.37249V3.37243V3.37237V3.37231V3.37226V3.3722V3.37214V3.37208V3.37202V3.37196V3.3719V3.37184V3.37178V3.37172V3.37166V3.3716V3.37154V3.37148V3.37142V3.37136V3.3713V3.37124V3.37118V3.37111V3.37105V3.37099V3.37093V3.37087V3.37081V3.37075V3.37069V3.37062V3.37056V3.3705V3.37044V3.37038V3.37032V3.37025V3.37019V3.37013V3.37007V3.37V3.36994V3.36988V3.36982V3.36975V3.36969V3.36963V3.36956V3.3695V3.36944V3.36937V3.36931V3.36925V3.36918V3.36912V3.36905V3.36899V3.36893V3.36886V3.3688V3.36873V3.36867V3.3686V3.36854V3.36847V3.36841V3.36834V3.36828V3.36821V3.36815V3.36808V3.36802V3.36795V3.36788V3.36782V3.36775V3.36769V3.36762V3.36755V3.36749V3.36742V3.36735V3.36729V3.36722V3.36715V3.36709V3.36702V3.36695V3.36688V3.36681V3.36675V3.36668V3.36661V3.36654V3.36647V3.36641V3.36634V3.36627V3.3662V3.36613V3.36606V3.36599V3.36592V3.36585V3.36579V3.36572V3.36565V3.36558V3.36551V3.36544V3.36537V3.3653V3.36522V3.36515V3.36508V3.36501V3.36494V3.36487V3.3648V3.36473V3.36466V3.36458V3.36451V3.36444V3.36437V3.3643V3.36422V3.36415V3.36408V3.36401V3.36393V3.36386V3.36379V3.36372V3.36364V3.36357V3.36349V3.36342V3.36335V3.36327V3.3632V3.36312V3.36305V3.36298V3.3629V3.36283V3.36275V3.36268V3.3626V3.36253V3.36245V3.36237V3.3623V3.36222V3.36215V3.36207V3.36199V3.36192V3.36184V3.36176V3.36169V3.36161V3.36153V3.36146V3.36138V3.3613V3.36122V3.36115V3.36107V3.36099V3.36091V3.36083V3.36075V3.36067V3.3606V3.36052V3.36044V3.36036V3.36028V3.3602V3.36012V3.36004V3.35996V3.35988V3.3598V3.35972V3.35964V3.35956V3.35947V3.35939V3.35931V3.35923V3.35915V3.35907V3.35899V3.3589V3.35882V3.35874V3.35866V3.35857V3.35849V3.35841V3.35832V3.35824V3.35816V3.35807V3.35799V3.3579V3.35782V3.35774V3.35765V3.35757V3.35748V3.3574V3.35731V3.35723V3.35714V3.35706V3.35697V3.35688V3.3568V3.35671V3.35662V3.35654V3.35645V3.35636V3.35628V3.35619V3.3561V3.35601V3.35593V3.35584V3.35575V3.35566V3.35557V3.35548V3.3554V3.35531V3.35522V3.35513V3.35504V3.35495V3.35486V3.35477V3.35468V3.35459V3.3545V3.35441V3.35432V3.35422V3.35413V3.35404V3.35395V3.35386V3.35377V3.35367V3.35358V3.35349V3.3534V3.3533V3.35321V3.35312V3.35302V3.35293V3.35284V3.35274V3.35265V3.35255V3.35246V3.35236V3.35227V3.35217V3.35208V3.35198V3.35189V3.35179V3.3517V3.3516V3.3515V3.35141V3.35131V3.35121V3.35111V3.35102V3.35092V3.35082V3.35072V3.35063V3.35053V3.35043V3.35033V3.35023V3.35013V3.35003V3.34993V3.34983V3.34973V3.34963V3.34953V3.07541V1.50745C7.86386 1.97027 8.36989 2.68286 8.57933 3.37875Z" fill="#284B63" stroke="#284B63" stroke-width="0.5"/>
<path d="M6.42273 3.41393L6.42264 3.41388L6.4192 3.42032C6.39074 3.47368 6.34347 3.50213 6.28856 3.50213H5.21775C5.17055 3.50213 5.12452 3.48034 5.09005 3.43888C5.07275 3.40837 5.06512 3.37945 5.06512 3.3495V3.31524V2.98971V0.933749V0.642488V0.424328C5.06608 0.420103 5.06712 0.415227 5.06807 0.410148C5.07 0.399883 5.0722 0.385715 5.07318 0.368815C5.0807 0.308051 5.13789 0.25 5.21775 0.25H6.16009C6.27085 0.25 6.37603 0.322665 6.42025 0.424401C6.43557 0.478779 6.44119 0.504622 6.44119 0.531123V0.642488V0.933749V2.95544V3.2724V3.3495C6.44119 3.37128 6.43708 3.38881 6.42273 3.41393Z" fill="#284B63" stroke="#284B63" stroke-width="0.5"/>
</svg>
