<svg width="15" height="15" viewBox="0 0 15 15" fill="none" xmlns="http://www.w3.org/2000/svg">
<path d="M4.50803 10.0823H0.409668V14.1806H4.50803V10.0823Z" fill="white"/>
<path d="M12.0081 5.28725L9.71304 2.99217C9.5491 2.82824 9.5491 2.58233 9.71304 2.4184L12.0081 0.123317C12.1721 -0.0406174 12.418 -0.0406174 12.5819 0.123317L14.877 2.4184C15.0409 2.58233 15.0409 2.82824 14.877 2.99217L12.5819 5.28725C12.418 5.45119 12.1721 5.45119 12.0081 5.28725Z" fill="white"/>
<path d="M4.41803 2.70535C4.41803 3.78729 3.54095 4.66437 2.45902 4.66437C1.37708 4.66437 0.5 3.78729 0.5 2.70535C0.5 1.62342 1.37708 0.746338 2.45902 0.746338C3.54095 0.746338 4.41803 1.62342 4.41803 2.70535Z" stroke="white"/>
<path d="M12.295 14.5905C13.653 14.5905 14.754 13.4896 14.754 12.1315C14.754 10.7734 13.653 9.67249 12.295 9.67249C10.9369 9.67249 9.83594 10.7734 9.83594 12.1315C9.83594 13.4896 10.9369 14.5905 12.295 14.5905Z" fill="white"/>
<path d="M2.86899 7.21338H2.04932V9.26256H2.86899V7.21338Z" fill="white"/>
<path d="M2.459 5.98401L1.22949 7.62335H3.68851L2.459 5.98401Z" fill="white"/>
<path d="M7.78697 2.29553H5.73779V3.1152H7.78697V2.29553Z" fill="white"/>
<path d="M9.01654 2.70522L7.3772 1.47571V3.93472L9.01654 2.70522Z" fill="white"/>
<path d="M12.7049 5.98401H11.8853V8.03319H12.7049V5.98401Z" fill="white"/>
<path d="M12.2952 9.26264L13.5247 7.62329H11.0657L12.2952 9.26264Z" fill="white"/>
</svg>
