<svg width="347" height="68" viewBox="0 0 347 68" fill="none" xmlns="http://www.w3.org/2000/svg">
<path d="M347 57.8756V68H0V62.56L0.980226 60.8978H2.94068L1.7154 58.3289H7.10664L8.33192 59.3867L11.5177 59.0844V53.7956H13.2331L12.4979 47.4489L14.7034 46.9956L15.1935 42.4622H16.4188V45.7867H17.399V46.9956L18.3792 46.6933V53.7956L19.6045 53.6444L20.3397 54.8533L23.7705 55.76H29.1617V60.8978H32.1024V47.1467L42.3948 46.6933L50.7267 47.4489V41.5556L52.9322 41.1022L69.8411 41.5556V47.7511L72.5367 49.1111V55.76L75.4774 56.2133V57.12H76.9477V58.48H79.6434V58.9333H80.3785V55.6089L81.8489 54.4H83.8093V55.1556L84.5445 54.5511L84.2994 45.4844H86.75V36.5689L88.4654 36.1156V26.4444L90.4258 25.9911V24.3289L104.394 24.7822V41.4044L108.07 41.1022V52.5867H111.746V53.3422H116.892V54.8533H118.852V61.5022H123.018L124.734 59.9911L126.204 60.8978L126.694 60.2933V51.68H128.9V21.4578H130.125L130.86 18.7378L133.801 18.4356V14.5067L137.967 14.8089L138.947 13.9022L139.682 14.8089H141.643L142.623 16.32L146.054 15.8667L148.749 16.32V18.7378L149.975 20.8533L150.71 20.2489L151.935 20.8533V22.6667L153.405 23.2711L153.65 46.0889H155.856V57.4222H157.571V55.6089H159.042V58.3289H161.002L163.453 57.12V45.3333H166.883V42.4622H175.46V24.3289L182.077 22.8178L182.567 13.6L183.547 22.3644L184.773 22.6667L185.508 23.7244L188.203 24.0267V45.3333H189.674V44.5778L196.535 44.2756V42.9156H195.8V40.0444H198.986L200.701 41.7067L206.583 40.9511V40.0444H214.179L214.915 24.7822L231.578 24.3289L242.116 27.6533V46.0889L245.792 45.7867V42.7644H248.977V41.4044L253.143 41.2533V39.1378H260.005L264.661 40.8V41.5556L269.317 42.4622V47.7511H277.159V49.5644H280.1V57.5733H282.795V58.3289H285.001L287.451 57.5733L288.186 12.8444H290.637V10.5778H293.823V7.25333L297.008 6.95111V5.28889L299.459 4.98667V2.11556L301.91 0L303.87 1.36L304.36 5.28889L306.566 4.68444V6.49778H307.791L309.261 9.21778L313.182 11.9378L312.692 12.5422L312.937 13.6H314.653L315.633 14.8089V34.7556L331.316 34.3022L331.561 47.7511L337.688 49.5644V53.3422H340.383L339.893 57.8756H347Z" fill="white"/>
</svg>
