<svg width="820" height="163" viewBox="0 0 820 163" fill="none" xmlns="http://www.w3.org/2000/svg">
<path d="M819 138.029V162H1V149.12L3.31073 145.184H7.9322L5.04379 139.102H17.7528L20.6412 141.607L28.1511 140.891V128.369H32.1949L30.4619 113.342L35.661 112.269L36.8164 101.536H39.7048V109.407H42.0155V112.269L44.3263 111.553V128.369L47.2147 128.011L48.9477 130.873L57.0353 133.02H69.7444V145.184H76.6766V112.627L100.939 111.553L120.581 113.342V99.3889L125.78 98.3156L165.64 99.3889V114.058L171.994 117.278V133.02L178.927 134.093V136.24H182.393V139.46H188.747V140.533H190.48V132.662L193.946 129.8H198.568V131.589L200.301 130.158L199.723 108.691H205.5V87.5822L209.544 86.5089V63.6111L214.165 62.5378V58.6022L247.093 59.6756V99.0311L255.758 98.3156V125.507H264.424V127.296H276.555V130.873H281.177V146.616H290.997L295.041 143.038L298.507 145.184L299.662 143.753V123.36H304.862V51.8044H307.75L309.483 45.3644L316.415 44.6489V35.3467L326.236 36.0622L328.547 33.9156L330.28 36.0622H334.901L337.212 39.64L345.299 38.5667L351.654 39.64V45.3644L354.542 50.3733L356.275 48.9422L359.164 50.3733V54.6667L362.63 56.0978L363.208 110.122H368.407V136.956H372.451V132.662H375.917V139.102H380.538L386.315 136.24V108.333H394.403V101.536H414.621V58.6022L430.219 55.0244L431.374 33.2L433.685 53.9511L436.573 54.6667L438.307 57.1711L444.661 57.8867V108.333H448.127V106.544L464.302 105.829V102.609H462.569V95.8111H470.079L474.123 99.7467L487.987 97.9578V95.8111H505.895L507.629 59.6756L546.911 58.6022L571.751 66.4733V110.122L580.417 109.407V102.251H587.927V99.0311L597.747 98.6733V93.6644H613.922L624.898 97.6V99.3889L635.874 101.536V114.058H654.36V118.351H661.292V137.313H667.647V139.102H672.846L678.623 137.313L680.356 31.4111H686.133V26.0444H693.643V18.1733L701.153 17.4578V13.5222L706.929 12.8067V6.00889L712.706 1L717.328 4.22L718.483 13.5222L723.682 12.0911V16.3844H726.571L730.037 22.8244L739.28 29.2644L738.124 30.6956L738.702 33.2H742.746L745.057 36.0622V83.2889L782.028 82.2156L782.606 114.058L797.048 118.351V127.296H803.403L802.247 138.029H819Z" stroke="white"/>
</svg>
