<svg width="20" height="16" viewBox="0 0 20 16" fill="none" xmlns="http://www.w3.org/2000/svg">
<path d="M4.85394 1.13721H0.301042C0.134788 1.13721 0 1.27788 0 1.45142V14.8151C0 14.9887 0.134788 15.1293 0.301042 15.1293H4.85394C5.0202 15.1293 5.15498 14.9886 5.15498 14.8151V1.45142C5.15498 1.27788 5.0202 1.13721 4.85394 1.13721ZM4.5529 14.5009H0.602084V1.76559H4.55287L4.5529 14.5009Z" fill="white"/>
<path d="M2.57754 4.81951C3.1866 4.81951 3.68218 4.32393 3.68218 3.71487C3.68218 3.10579 3.1866 2.61023 2.57754 2.61023C1.96848 2.61023 1.4729 3.10579 1.4729 3.71487C1.4729 4.32393 1.96848 4.81951 2.57754 4.81951ZM2.57754 3.0521C2.94301 3.0521 3.24033 3.3494 3.24033 3.71487C3.24033 4.08034 2.94303 4.37764 2.57754 4.37764C2.21207 4.37764 1.91477 4.08034 1.91477 3.71487C1.91477 3.3494 2.21207 3.0521 2.57754 3.0521Z" fill="white"/>
<path d="M2.76152 13.6566V7.02881H2.57742H2.39331V13.6566H2.57742H2.76152Z" fill="white"/>
<path d="M10.7453 1.13721H6.1924C6.02615 1.13721 5.89136 1.27788 5.89136 1.45142V14.8151C5.89136 14.9887 6.02615 15.1293 6.1924 15.1293H10.7453C10.9116 15.1293 11.0463 14.9886 11.0463 14.8151V1.45142C11.0463 1.27788 10.9116 1.13721 10.7453 1.13721ZM10.4443 14.5009H6.49344V1.76559H10.4442L10.4443 14.5009Z" fill="white"/>
<path d="M8.4689 4.81951C9.07796 4.81951 9.57354 4.32393 9.57354 3.71487C9.57354 3.10579 9.07796 2.61023 8.4689 2.61023C7.85984 2.61023 7.36426 3.10579 7.36426 3.71487C7.36426 4.32393 7.85984 4.81951 8.4689 4.81951ZM8.4689 3.0521C8.83437 3.0521 9.13169 3.3494 9.13169 3.71487C9.13169 4.08034 8.83439 4.37764 8.4689 4.37764C8.10343 4.37764 7.80613 4.08034 7.80613 3.71487C7.80613 3.3494 8.10343 3.0521 8.4689 3.0521Z" fill="white"/>
<path d="M8.65288 13.6566V7.02881H8.46877H8.28467V13.6566H8.46877H8.65288Z" fill="white"/>
<path d="M16.5081 0.469817L12.0758 1.51065C11.9139 1.54865 11.8149 1.71641 11.8545 1.88536L14.9096 14.8952C14.9493 15.0641 15.1126 15.1702 15.2745 15.1322L19.7068 14.0914C19.8687 14.0534 19.9677 13.8856 19.9281 13.7167L16.873 0.706885C16.8333 0.537942 16.67 0.43181 16.5081 0.469817ZM19.2701 13.5485L15.4239 14.4516L12.5125 2.05357L16.3587 1.15039L19.2701 13.5485Z" fill="white"/>
<path d="M15.1337 4.575C15.7266 4.43577 16.0958 3.84002 15.9565 3.24709C15.8173 2.65413 15.2215 2.28499 14.6286 2.42423C14.0357 2.56346 13.6665 3.15919 13.8058 3.75214C13.945 4.34508 14.5407 4.71424 15.1337 4.575ZM14.7296 2.8544C15.0854 2.77085 15.4428 2.9923 15.5264 3.3481C15.6099 3.70389 15.3885 4.06128 15.0327 4.14483C14.6769 4.22838 14.3195 4.00692 14.2359 3.65113C14.1524 3.29534 14.3738 2.93794 14.7296 2.8544Z" fill="white"/>
<path d="M17.3331 13.136L15.8179 6.68365L15.6387 6.72573L15.4595 6.76782L16.9747 13.2201L17.1539 13.1781L17.3331 13.136Z" fill="white"/>
</svg>
