<svg width="15" height="15" viewBox="0 0 15 15" fill="none" xmlns="http://www.w3.org/2000/svg">
<path d="M11.8525 9.6075C11.8525 10.8474 10.8474 11.8525 9.6075 11.8525H2.745C1.50512 11.8525 0.5 10.8474 0.5 9.6075V2.745C0.5 1.50512 1.50512 0.5 2.745 0.5H9.6075C10.8474 0.5 11.8525 1.50512 11.8525 2.745V9.6075Z" stroke="#284B63" stroke-linecap="round" stroke-linejoin="round"/>
<mask id="path-2-inside-1_24_17" fill="white">
<path d="M5.39258 15.0001H12.2551C13.7711 15.0001 15.0001 13.7711 15.0001 12.2551V5.39258"/>
</mask>
<path d="M5.39258 14.0001C4.84029 14.0001 4.39258 14.4478 4.39258 15.0001C4.39258 15.5524 4.84029 16.0001 5.39258 16.0001V14.0001ZM16.0001 5.39258C16.0001 4.84029 15.5524 4.39258 15.0001 4.39258C14.4478 4.39258 14.0001 4.84029 14.0001 5.39258H16.0001ZM5.39258 16.0001H12.2551V14.0001H5.39258V16.0001ZM12.2551 16.0001C14.3234 16.0001 16.0001 14.3233 16.0001 12.2551H14.0001C14.0001 13.2188 13.2188 14.0001 12.2551 14.0001V16.0001ZM16.0001 12.2551V5.39258H14.0001V12.2551H16.0001Z" fill="#284B63" mask="url(#path-2-inside-1_24_17)"/>
</svg>
