<svg width="15" height="15" viewBox="0 0 15 15" fill="none" xmlns="http://www.w3.org/2000/svg">
<path d="M7.5 12C9.975 12 12 9.975 12 7.5C12 5.025 9.975 3 7.5 3C5.025 3 3 5.025 3 7.5C3 9.975 5.025 12 7.5 12ZM5.41875 7.05C5.53125 6.9375 5.64375 6.88125 5.8125 6.88125C5.98125 6.88125 6.09375 6.9375 6.20625 7.05L6.9375 7.78125L6.9375 5.25C6.9375 4.9125 7.1625 4.6875 7.5 4.6875C7.8375 4.6875 8.0625 4.9125 8.0625 5.25L8.0625 7.78125L8.79375 7.05C9.01875 6.825 9.35625 6.825 9.58125 7.05C9.80625 7.275 9.80625 7.6125 9.58125 7.8375L7.89375 9.58125C7.78125 9.69375 7.66875 9.75 7.5 9.75C7.33125 9.75 7.21875 9.69375 7.10625 9.58125L5.41875 7.8375C5.19375 7.6125 5.19375 7.275 5.41875 7.05Z" fill="#284B63"/>
<path fill-rule="evenodd" clip-rule="evenodd" d="M7.5 0C3.35787 0 0 3.35787 0 7.5C0 11.6422 3.35787 15 7.5 15C11.6422 15 15 11.6422 15 7.5C15 3.35787 11.6422 0 7.5 0ZM1.04651 7.5C1.04651 3.93584 3.93584 1.04651 7.5 1.04651C11.0641 1.04651 13.9535 3.93584 13.9535 7.5C13.9535 11.0641 11.0641 13.9535 7.5 13.9535C3.93584 13.9535 1.04651 11.0641 1.04651 7.5Z" fill="#284B63"/>
</svg>
