<svg width="20" height="17" viewBox="0 0 20 17" fill="none" xmlns="http://www.w3.org/2000/svg">
<path d="M17.876 7.5625V5.6875C17.876 3.09867 15.7773 1 13.1885 1H5.68848C3.09965 1 1.00098 3.09867 1.00098 5.6875C1.00098 8.27631 3.09965 10.375 5.68848 10.375H9.43848" stroke="#3C6E71" stroke-linecap="round" stroke-linejoin="round"/>
<path d="M17.0548 14.2361C17.5623 13.7273 17.876 13.0253 17.876 12.25C17.876 10.6967 16.6168 9.4375 15.0635 9.4375C13.5101 9.4375 12.251 10.6967 12.251 12.25C12.251 13.8033 13.5101 15.0625 15.0635 15.0625C15.8415 15.0625 16.5457 14.7466 17.0548 14.2361ZM17.0548 14.2361L18.8135 16" stroke="#3C6E71" stroke-linecap="round" stroke-linejoin="round"/>
<path d="M5.50098 8L7.50098 3M8.00098 8H8.50098M10.501 8H11.001" stroke="#3C6E71" stroke-width="0.5" stroke-linecap="round"/>
</svg>
