<svg width="15" height="15" viewBox="0 0 15 15" fill="none" xmlns="http://www.w3.org/2000/svg">
<path d="M6.22159 2.55302L6.48321 2.48474V2.21436V0.410381C6.81881 0.372748 7.1569 0.35 7.5 0.35C7.8431 0.35 8.1812 0.372737 8.51679 0.410373V2.21436V2.48474L8.77841 2.55302C9.24454 2.67467 9.68445 2.85951 10.0897 3.09998L10.3235 3.23874L10.5158 3.04647L11.7948 1.76746C12.0581 1.97814 12.3127 2.20166 12.5555 2.4445C12.7983 2.68734 13.0219 2.94193 13.2325 3.20521L11.9535 4.48423L11.7613 4.6765L11.9 4.91033C12.1405 5.31554 12.3253 5.75546 12.447 6.22159L12.5153 6.48321H12.7856H14.5896C14.6273 6.81881 14.65 7.1569 14.65 7.5C14.65 7.8431 14.6273 8.1812 14.5896 8.51679H12.7856H12.5153L12.447 8.77841C12.3253 9.24454 12.1405 9.68445 11.9 10.0897L11.7613 10.3235L11.9535 10.5158L13.2325 11.7948C13.0219 12.0581 12.7983 12.3127 12.5555 12.5555C12.3127 12.7983 12.0581 13.0219 11.7948 13.2325L10.5158 11.9535L10.3235 11.7613L10.0897 11.9C9.68445 12.1405 9.24454 12.3253 8.77841 12.447L8.51679 12.5153V12.7856V14.5896C8.18119 14.6273 7.8431 14.65 7.5 14.65C7.1569 14.65 6.8188 14.6273 6.48321 14.5896V12.7856V12.5153L6.22159 12.447C5.75546 12.3253 5.31554 12.1405 4.91033 11.9L4.6765 11.7613L4.48423 11.9535L3.20522 13.2325C2.94193 13.0219 2.68734 12.7983 2.4445 12.5555C2.20165 12.3127 1.97812 12.0581 1.76746 11.7948L3.04647 10.5158L3.23874 10.3235L3.09998 10.0897C2.85951 9.68445 2.67467 9.24454 2.55302 8.77841L2.48474 8.51679H2.21436H0.410381C0.372748 8.18119 0.35 7.8431 0.35 7.5C0.35 7.1569 0.372737 6.8188 0.410373 6.48321H2.21436H2.48474L2.55302 6.22159C2.67467 5.75546 2.85951 5.31554 3.09998 4.91033L3.23874 4.6765L3.04647 4.48423L1.76746 3.20522C1.97813 2.94193 2.20166 2.68734 2.4445 2.4445C2.68734 2.20165 2.94193 1.97812 3.20521 1.76746L4.48423 3.04647L4.6765 3.23874L4.91033 3.09998C5.31554 2.85951 5.75546 2.67467 6.22159 2.55302ZM10.5836 7.5C10.5836 5.78079 9.2192 4.41642 7.5 4.41642C5.7808 4.41642 4.41642 5.78079 4.41642 7.5C4.41642 9.21921 5.7808 10.5836 7.5 10.5836C9.2192 10.5836 10.5836 9.21921 10.5836 7.5Z" fill="#284B63" stroke="#284B63" stroke-width="0.7"/>
</svg>
