<svg width="20" height="20" viewBox="0 0 20 20" fill="none" xmlns="http://www.w3.org/2000/svg">
<path d="M8.26599 3.29114L8.52761 3.22286V2.95248V0.443214C9.01242 0.385555 9.50194 0.35 10 0.35C10.4981 0.35 10.9876 0.385537 11.4724 0.443204V2.95248V3.22286L11.734 3.29114C12.3661 3.45611 12.9628 3.70681 13.5124 4.03297L13.7463 4.17174L13.9385 3.97947L15.7175 2.20053C16.1003 2.50254 16.4707 2.82437 16.8232 3.17683L17.0707 2.92935L16.8232 3.17683C17.1756 3.5293 17.4975 3.89969 17.7995 4.28252L16.0205 6.06146L15.8283 6.25374L15.967 6.48757C16.2932 7.03719 16.5439 7.63386 16.7089 8.266L16.7771 8.52761H17.0475H19.5568C19.6144 9.01242 19.65 9.50194 19.65 10C19.65 10.4981 19.6145 10.9876 19.5568 11.4724H17.0475H16.7771L16.7089 11.734C16.5439 12.3661 16.2932 12.9628 15.967 13.5124L15.8283 13.7463L16.0205 13.9385L17.7995 15.7175C17.4975 16.1003 17.1756 16.4707 16.8232 16.8232C16.4707 17.1756 16.1003 17.4975 15.7175 17.7995L13.9385 16.0205L13.7463 15.8283L13.5124 15.967C12.9628 16.2932 12.3661 16.5439 11.734 16.7089L11.4724 16.7771V17.0475V19.5568C10.9876 19.6144 10.4981 19.65 10 19.65C9.50193 19.65 9.01241 19.6145 8.52761 19.5568V17.0475V16.7771L8.26599 16.7089C7.63386 16.5439 7.03719 16.2932 6.48757 15.967L6.25374 15.8283L6.06146 16.0205L4.28253 17.7995C3.89969 17.4975 3.5293 17.1756 3.17683 16.8232C2.82437 16.4707 2.50252 16.1003 2.20053 15.7175L3.97947 13.9385L4.17174 13.7463L4.03297 13.5124C3.70681 12.9628 3.45611 12.3661 3.29114 11.734L3.22286 11.4724H2.95248H0.443214C0.385555 10.9876 0.35 10.4981 0.35 10C0.35 9.50193 0.385537 9.01241 0.443204 8.52761H2.95248H3.22286L3.29114 8.26599C3.45611 7.63386 3.70681 7.03719 4.03297 6.48757L4.17174 6.25374L3.97947 6.06146L2.20053 4.28253C2.50254 3.89969 2.82437 3.5293 3.17683 3.17683C3.5293 2.82437 3.89968 2.50252 4.28252 2.20053L6.06146 3.97947L6.25374 4.17174L6.48757 4.03297C7.03719 3.70681 7.63386 3.45611 8.26599 3.29114ZM13.9948 10C13.9948 7.77216 12.2278 6.00522 10 6.00522C7.77216 6.00522 6.00522 7.77216 6.00522 10C6.00522 12.2278 7.77216 13.9948 10 13.9948C12.2278 13.9948 13.9948 12.2278 13.9948 10Z" stroke="white" stroke-width="0.7"/>
</svg>
