<svg width="20" height="20" viewBox="0 0 20 20" fill="none" xmlns="http://www.w3.org/2000/svg">
<path d="M6.00081 4.56815C7.30079 4.85863 8.63515 5.00608 9.96717 5.00608C11.2992 5.00608 12.6336 4.85889 13.9286 4.56919C14.0604 4.54262 14.1503 4.42044 14.1365 4.2868C13.9502 2.50096 12.6784 1.03581 11.058 0.570531V0.260516C11.058 0.116711 10.9412 0 10.7974 0C10.6536 0 10.5369 0.116711 10.5369 0.260516V0.460332C10.3493 0.432718 10.1597 0.41396 9.96639 0.41396C9.77361 0.41396 9.58447 0.432718 9.39716 0.460072V0.260516C9.39716 0.116711 9.28045 0 9.13664 0C8.99284 0 8.87613 0.116711 8.87613 0.260516V0.57027C7.25624 1.03529 5.98388 2.5007 5.79787 4.2868C5.78406 4.4181 5.87185 4.53924 6.00081 4.56815ZM8.87613 1.11631V1.92313C8.87613 2.06694 8.99284 2.18365 9.13664 2.18365C9.28045 2.18365 9.39716 2.06694 9.39716 1.92313V0.985533C9.58395 0.954011 9.77413 0.934732 9.96769 0.934732C10.1607 0.934732 10.3504 0.954011 10.5369 0.985273V1.92287C10.5369 2.06668 10.6536 2.18339 10.7974 2.18339C10.9412 2.18339 11.058 2.06668 11.058 1.92287V1.11605C12.3415 1.5433 13.3518 2.69452 13.5868 4.1099C11.2106 4.60749 8.73337 4.60905 6.34704 4.1099C6.58228 2.69478 7.5923 1.54382 8.87613 1.11631ZM11.58 3.8262C11.0517 3.94448 10.5088 4.0044 9.96691 4.0044C9.42556 4.0044 8.8829 3.94448 8.35405 3.8262C8.21364 3.79468 8.12532 3.65556 8.15658 3.51515C8.1881 3.37473 8.32826 3.28693 8.46738 3.31767C9.45213 3.53755 10.4848 3.53729 11.4664 3.31767C11.6071 3.28667 11.746 3.37473 11.7775 3.51515C11.809 3.65556 11.7204 3.79468 11.58 3.8262ZM5.6228 5.74543C5.62775 5.57635 5.64286 5.06157 6.01227 4.92219C6.37726 4.78464 6.74979 5.15536 6.82065 5.23117C6.91887 5.33641 6.9134 5.50132 6.80841 5.59954C6.70316 5.69749 6.53826 5.69228 6.44004 5.58729C6.36788 5.51096 6.25976 5.43463 6.20219 5.41691C6.18447 5.45052 6.15009 5.54326 6.14357 5.76106C6.117 6.66531 6.81779 6.90915 6.82482 6.91176C6.90715 6.93911 6.97045 7.0058 6.99364 7.08943L7.00484 7.13033C7.00927 7.14596 7.01187 7.16211 7.01344 7.17827C7.21273 9.55313 9.08949 10.3214 9.96717 10.3214C10.8448 10.3214 12.7216 9.55313 12.9209 7.17827C12.9222 7.16237 12.9251 7.14648 12.9292 7.13111L12.9404 7.09021C12.9634 7.00632 13.0269 6.93937 13.1093 6.91176C13.1363 6.90212 13.8166 6.6528 13.7905 5.76106C13.7843 5.54353 13.7499 5.45104 13.7322 5.41718C13.6743 5.43541 13.5631 5.51383 13.494 5.58755C13.3958 5.6928 13.2309 5.69801 13.1257 5.5998C13.0204 5.50158 13.0152 5.33668 13.1134 5.23143C13.184 5.15536 13.5558 4.78438 13.9218 4.92245C14.2912 5.06209 14.3063 5.57661 14.3113 5.74569C14.3379 6.64499 13.8106 7.14544 13.4286 7.34005C13.1684 9.75425 11.2619 10.8419 9.96717 10.8419C8.67214 10.8419 6.76569 9.75451 6.50569 7.34031C6.12377 7.14518 5.59623 6.64473 5.6228 5.74543ZM10.3652 5.69515C10.2892 5.69515 10.217 5.72823 10.1675 5.78607C10.1542 5.8017 10.1482 5.82098 10.1391 5.83895H9.79497C9.78585 5.82098 9.77986 5.8017 9.76657 5.78607C9.71707 5.72849 9.64491 5.69515 9.56884 5.69515H7.51545C7.44563 5.69515 7.37868 5.72328 7.3297 5.77304C7.28073 5.8228 7.25389 5.89027 7.25494 5.96009C7.25936 6.20367 7.30105 7.02065 7.65926 7.31165C7.88773 7.4974 8.24464 7.61281 8.59086 7.61281C8.92172 7.61281 9.19917 7.50808 9.37267 7.3179C9.5605 7.11209 9.68555 6.68042 9.75693 6.35972H10.1771C10.2485 6.68042 10.3736 7.11209 10.5614 7.3179C10.7352 7.50808 11.0129 7.61281 11.3435 7.61281C11.6894 7.61281 12.0464 7.4974 12.2751 7.31165C12.633 7.02065 12.675 6.20367 12.6794 5.96009C12.6804 5.89027 12.6536 5.8228 12.6046 5.77304C12.5557 5.72328 12.4887 5.69515 12.4189 5.69515H10.3652ZM8.98789 6.96673C8.91521 7.04644 8.77062 7.09177 8.59086 7.09177C8.36604 7.09177 8.12376 7.01779 7.98803 6.90733C7.89815 6.83438 7.82469 6.52619 7.79264 6.21592H9.25466C9.18718 6.52176 9.08584 6.85939 8.98789 6.96673ZM11.9463 6.90759C11.8106 7.01779 11.5683 7.09203 11.3435 7.09203C11.1637 7.09203 11.0189 7.04644 10.9462 6.96673C10.8485 6.85939 10.7469 6.52176 10.6797 6.21644H12.1417C12.1097 6.52645 12.0362 6.83438 11.9463 6.90759ZM18.4342 10.9344C15.8384 11.7829 13.1423 12.2349 10.4114 12.2792V18.5553C10.4114 18.6991 10.2946 18.8158 10.1508 18.8158C10.007 18.8158 9.89032 18.6991 9.89032 18.5553V13.2222C7.90518 13.2173 5.93724 12.9953 4.00942 12.5629C3.98884 12.5611 3.96852 12.5566 3.94846 12.5496C3.1281 12.3636 2.31398 12.1437 1.51029 11.8814L1.65696 13.8965C1.66738 14.04 1.55953 14.1648 1.41598 14.1752C1.40947 14.1755 1.40322 14.1757 1.39671 14.1757C1.26124 14.1757 1.14713 14.0713 1.13697 13.9342L0.962166 11.5291C0.955913 11.4419 0.993688 11.3572 1.06299 11.3038C1.13228 11.2501 1.22372 11.2353 1.30631 11.2637C2.16497 11.5578 3.0364 11.8014 3.91538 12.0059C4.4695 11.124 5.36958 10.4545 6.59713 10.0127L6.58098 9.74018C6.57238 9.59664 6.68206 9.47341 6.8256 9.46482C6.96785 9.45231 7.09263 9.56564 7.10097 9.70944L7.16792 10.838L7.94635 10.5592C8.0826 10.5108 8.23109 10.5811 8.27955 10.7166C8.328 10.8521 8.25766 11.0013 8.12219 11.0498L7.0163 11.446C6.98765 11.4562 6.95795 11.4614 6.92851 11.4614C6.87823 11.4614 6.82795 11.4468 6.78496 11.4182C6.71645 11.3728 6.67346 11.2981 6.66851 11.2163L6.62944 10.5564C5.64833 10.9313 4.92905 11.4481 4.45308 12.1291C6.2384 12.5058 8.05759 12.696 9.89058 12.7012V12.022C9.89058 11.8788 10.006 11.7626 10.1493 11.7615C11.6879 11.7511 13.215 11.6047 14.7203 11.3327C14.3405 11.0282 13.8684 10.7609 13.3388 10.554L13.2994 11.2163C13.2945 11.2981 13.2515 11.3731 13.183 11.4182C13.1397 11.4466 13.0897 11.4614 13.0394 11.4614C13.0097 11.4614 12.98 11.4562 12.9516 11.446L11.846 11.0498C11.7105 11.0013 11.6402 10.8521 11.6887 10.7166C11.7371 10.5811 11.8854 10.5103 12.0219 10.5592L12.8 10.838L12.867 9.70944C12.8753 9.56564 12.9983 9.45257 13.1423 9.46482C13.2859 9.47341 13.3956 9.59664 13.387 9.74018L13.3708 10.0111C14.1698 10.3013 14.8675 10.7205 15.3643 11.2092C16.4671 10.9818 17.5568 10.6866 18.6283 10.3198C18.7098 10.2922 18.8002 10.3063 18.869 10.3579C18.938 10.4097 18.9769 10.4923 18.9727 10.5785L18.8073 14.078C18.8005 14.2218 18.6799 14.3318 18.5348 14.326C18.391 14.3193 18.28 14.1971 18.2868 14.0536L18.4342 10.9344ZM19.693 14.9826C19.4604 14.7489 19.0962 14.635 18.5796 14.635C18.063 14.635 17.6985 14.7489 17.4661 14.9826C17.1551 15.2954 17.1574 15.7344 17.1595 16.1218L17.1598 17.9298C17.1598 18.7126 17.7967 19.3496 18.5796 19.3496C19.3624 19.3496 19.9994 18.7126 19.9994 17.9298L19.9997 16.1218C20.0017 15.7344 20.0043 15.2954 19.693 14.9826ZM19.4789 16.1189L19.4786 17.9298C19.4786 18.4253 19.0753 18.8286 18.5798 18.8286C18.2146 18.8286 17.9009 18.6087 17.7603 18.295H18.2909C18.4347 18.295 18.5514 18.1783 18.5514 18.0345C18.5514 17.8907 18.4347 17.774 18.2909 17.774H17.6808V17.3342H18.2909C18.4347 17.3342 18.5514 17.2175 18.5514 17.0737C18.5514 16.9299 18.4347 16.8132 18.2909 16.8132H17.6805V16.3388H18.2909C18.4347 16.3388 18.5514 16.2221 18.5514 16.0783C18.5514 15.9345 18.4347 15.8178 18.2909 15.8178H17.6852C17.6959 15.6247 17.7298 15.4564 17.8355 15.3501C17.9635 15.2214 18.2138 15.1561 18.5796 15.1561C18.9453 15.1561 19.1957 15.2212 19.3236 15.3501C19.482 15.5091 19.4804 15.8053 19.4789 16.1189ZM1.5155 14.4636C0.962426 14.4636 0.573475 14.5845 0.325985 14.8333C-0.00434979 15.1654 -0.00174464 15.6357 0.000339495 16.0504L0.000600011 18.0061C0.000600011 18.8413 0.680026 19.5207 1.51524 19.5207C2.35046 19.5207 3.02988 18.8413 3.02988 18.0061L3.03014 16.0501C3.03249 15.6354 3.03509 15.1652 2.7045 14.8333C2.45753 14.5845 2.06832 14.4636 1.5155 14.4636ZM1.5155 18.9997C0.967636 18.9997 0.521893 18.554 0.521893 18.0061L0.521633 16.0475C0.519809 15.7039 0.517985 15.3791 0.695397 15.2006C0.837899 15.0573 1.11379 14.9844 1.5155 14.9844C1.91722 14.9844 2.1931 15.0571 2.33561 15.2006C2.45909 15.3246 2.49504 15.52 2.50546 15.7427H1.82786C1.68406 15.7427 1.56734 15.8594 1.56734 16.0033C1.56734 16.1471 1.68406 16.2638 1.82786 16.2638H2.50937V16.8197H1.82786C1.68406 16.8197 1.56734 16.9364 1.56734 17.0802C1.56734 17.224 1.68406 17.3407 1.82786 17.3407H2.50911V17.8592H1.82786C1.68406 17.8592 1.56734 17.9759 1.56734 18.1197C1.56734 18.2635 1.68406 18.3802 1.82786 18.3802H2.4346C2.28663 18.7428 1.93103 18.9997 1.5155 18.9997Z" fill="white"/>
</svg>
