<svg width="12" height="15" viewBox="0 0 12 15" fill="none" xmlns="http://www.w3.org/2000/svg">
<path d="M11.6487 12.5903C11.5901 12.3706 11.5072 12.1733 11.4047 11.9975C11.2253 11.6894 10.9872 11.4496 10.7249 11.2591C10.5286 11.1163 10.318 11.0005 10.1047 10.9002C9.78421 10.7501 9.45647 10.6347 9.15433 10.523C8.85176 10.4118 8.57481 10.3024 8.36057 10.1756C8.28182 10.1294 8.21089 10.0809 8.14954 10.0305C8.05799 9.9536 7.9875 9.87257 7.93576 9.78149C7.88402 9.6904 7.84925 9.5883 7.83598 9.46013C7.82637 9.36905 7.82224 9.2825 7.82224 9.20103C7.82224 8.95933 7.85795 8.74921 7.90327 8.535C8.03877 8.3821 8.16237 8.20037 8.27956 7.98249C8.39675 7.76461 8.50846 7.5087 8.61923 7.20612C8.69065 7.17363 8.76205 7.1347 8.83254 7.08803C8.99229 6.97998 9.14381 6.83077 9.27017 6.63118C9.39653 6.43158 9.49813 6.18349 9.56727 5.87725C9.58649 5.79256 9.59566 5.70789 9.59566 5.62504C9.59566 5.45107 9.55491 5.28537 9.4858 5.13751C9.43819 5.03544 9.37731 4.94113 9.30635 4.85553C9.34251 4.72232 9.38645 4.5424 9.42539 4.33232C9.47941 4.04026 9.52426 3.69007 9.52426 3.32067C9.52426 3.0831 9.50595 2.83774 9.45744 2.59467C9.42081 2.41294 9.36817 2.23259 9.29264 2.05953C9.18002 1.79999 9.01614 1.55554 8.78774 1.35366C8.57672 1.16642 8.31214 1.01812 7.99307 0.921998C7.85804 0.760397 7.71841 0.623523 7.57421 0.50865C7.33161 0.315028 7.07617 0.185009 6.81569 0.106728C6.55521 0.0284472 6.29151 0 6.02828 0C5.88959 0 5.75134 0.00779294 5.61218 0.0201562C5.48216 0.0320507 5.37414 0.0453221 5.27755 0.0618162C5.13288 0.0860739 5.01388 0.118125 4.89851 0.157939C4.7827 0.197753 4.67146 0.244452 4.52544 0.301669C4.47004 0.323641 4.39774 0.355692 4.30985 0.400077C4.15695 0.476981 3.9592 0.591414 3.74864 0.748884C3.43185 0.984635 3.08214 1.31835 2.81024 1.7697C2.67383 1.99493 2.55755 2.25034 2.47561 2.53555C2.3932 2.82166 2.34559 3.1366 2.34559 3.48128C2.34559 3.69552 2.36481 3.92257 2.40418 4.16014C2.40418 4.17663 2.40509 4.1931 2.40603 4.20866C2.40787 4.23795 2.41107 4.26909 2.41426 4.30112C2.4193 4.34825 2.42478 4.39724 2.42891 4.43846C2.43119 4.45862 2.43304 4.47693 2.43442 4.49157C2.43442 4.49843 2.43488 4.50441 2.43532 4.50898V4.51355V4.51492V4.51539V4.5424L2.49345 4.80104C2.41013 4.89212 2.3378 4.99466 2.28152 5.10684C2.20324 5.2634 2.15654 5.43918 2.15701 5.62548C2.15701 5.70789 2.16571 5.79256 2.18493 5.87725C2.23116 6.08186 2.29159 6.2604 2.36437 6.41511C2.47332 6.64858 2.61064 6.82984 2.76354 6.96627C2.88163 7.072 3.00799 7.14938 3.13341 7.20659C3.24418 7.50873 3.35542 7.76414 3.47307 7.98249C3.58979 8.2004 3.7134 8.38166 3.84889 8.53456C3.89375 8.74833 3.92993 8.95889 3.92993 9.20106C3.92993 9.283 3.92627 9.36904 3.91666 9.46016C3.90749 9.54805 3.88783 9.62404 3.85988 9.69272C3.81822 9.79479 3.75781 9.88177 3.67493 9.96462C3.59252 10.0461 3.48679 10.1221 3.36227 10.193C3.23548 10.2649 3.08899 10.3317 2.92924 10.3963C2.64954 10.5094 2.33141 10.6165 2.00821 10.7447C1.7656 10.8417 1.52068 10.9516 1.28677 11.0898C1.11146 11.1928 0.942538 11.3123 0.787353 11.4547C0.555264 11.6666 0.354317 11.9321 0.216066 12.2612C0.0769061 12.5894 -0.000466631 12.9781 2.11748e-06 13.4377C2.11748e-06 13.5022 0.0137422 13.5645 0.0361542 13.6212C0.0572186 13.6744 0.0856072 13.7242 0.119474 13.77C0.183107 13.857 0.265958 13.9343 0.36668 14.0094C0.543838 14.1403 0.77912 14.2626 1.08398 14.3779C1.54084 14.55 2.15331 14.7043 2.9448 14.8174C3.73581 14.9295 4.70626 15 5.87632 15C6.88981 15 7.7545 14.9469 8.48191 14.8595C9.02803 14.7945 9.49678 14.7093 9.89501 14.6123C10.1935 14.539 10.4521 14.4589 10.6741 14.3747C10.8408 14.312 10.9873 14.2465 11.1141 14.1788C11.2088 14.1275 11.2935 14.0762 11.3676 14.0222C11.4794 13.9416 11.5686 13.8583 11.6368 13.764C11.6702 13.7169 11.6991 13.6665 11.7197 13.6125C11.7398 13.558 11.7522 13.4985 11.7522 13.4376C11.7521 13.1231 11.716 12.8421 11.6487 12.5903ZM5.36453 12.8114L3.63511 10.6004C3.72529 10.5477 3.8109 10.4905 3.89099 10.4264C3.97707 10.3573 4.05626 10.2808 4.12584 10.1939L5.38331 10.7775L5.11507 11.2252L5.53073 11.666L5.36453 12.8114ZM4.3039 9.89864C4.3547 9.78008 4.38951 9.65053 4.40325 9.51046C4.4147 9.40241 4.41974 9.29897 4.41974 9.201C4.41974 8.88055 4.36663 8.61049 4.31401 8.36604L4.29889 8.29965L4.25219 8.2502C4.13363 8.12478 4.0192 7.96409 3.90429 7.75078C3.78986 7.537 3.6754 7.27105 3.55777 6.93961L3.5193 6.83113L3.41126 6.79131C3.33617 6.76383 3.2634 6.72859 3.19335 6.68145C3.08806 6.61002 2.9878 6.51346 2.89581 6.36926C2.80426 6.22506 2.72185 6.03144 2.66235 5.76959C2.65136 5.71969 2.64632 5.67162 2.64632 5.62539C2.64632 5.52056 2.67195 5.42122 2.71956 5.32556C2.75894 5.24682 2.81387 5.17176 2.88069 5.10493C2.99331 5.27523 3.08577 5.40979 3.12011 5.44322C3.22997 5.55355 3.19563 5.51966 3.23226 5.46519C3.23226 5.46519 3.35724 5.28941 4.01823 4.00355C5.34071 4.29742 7.6515 2.31119 7.6515 2.31119C7.6515 2.31119 7.67942 2.95253 8.12024 3.54028C8.53819 4.09783 8.77667 5.40657 8.77667 5.40657C8.77667 5.40657 8.83344 5.29899 8.91811 5.15435C8.96891 5.21342 9.01104 5.27749 9.04171 5.34388C9.08384 5.43405 9.10582 5.52745 9.10582 5.62495C9.10582 5.67165 9.10078 5.71969 9.08979 5.76915C9.04998 5.94355 9.00052 6.08822 8.94422 6.20722C8.86046 6.38666 8.76386 6.5098 8.6627 6.60044C8.56107 6.69109 8.4535 6.75012 8.34135 6.79134L8.2333 6.83072L8.19483 6.9392C8.07718 7.27107 7.96274 7.5375 7.84831 7.75081C7.73341 7.96506 7.61851 8.12525 7.49994 8.2507L7.45325 8.30015L7.4386 8.36698C7.38548 8.61052 7.3324 8.88105 7.3324 9.20103C7.3324 9.299 7.33744 9.40244 7.34842 9.51049C7.36169 9.63776 7.39055 9.75676 7.43449 9.86662C7.43634 9.87166 7.43863 9.8767 7.44091 9.88127L5.95275 10.664L4.3039 9.89864ZM6.50757 12.8915L6.32951 11.6661L6.74561 11.2252L6.47643 10.7757L7.61397 10.1779C7.64555 10.2186 7.67851 10.2575 7.71422 10.2937C7.82728 10.4095 7.9573 10.5052 8.09692 10.5885L6.50757 12.8915Z" fill="#284B63"/>
</svg>
