<svg width="20" height="17" viewBox="0 0 20 17" fill="none" xmlns="http://www.w3.org/2000/svg">
<path d="M17.875 7.5625V5.6875C17.875 3.09867 15.7763 1 13.1875 1H5.6875C3.09867 1 1 3.09867 1 5.6875C1 8.27631 3.09867 10.375 5.6875 10.375H9.4375" stroke="#284B63" stroke-linecap="round" stroke-linejoin="round"/>
<path d="M17.0538 14.2361C17.5613 13.7273 17.875 13.0253 17.875 12.25C17.875 10.6967 16.6158 9.4375 15.0625 9.4375C13.5092 9.4375 12.25 10.6967 12.25 12.25C12.25 13.8033 13.5092 15.0625 15.0625 15.0625C15.8405 15.0625 16.5447 14.7466 17.0538 14.2361ZM17.0538 14.2361L18.8125 16" stroke="#284B63" stroke-linecap="round" stroke-linejoin="round"/>
<path d="M5.5 8L7.5 3M8 8H8.5M10.5 8H11" stroke="#284B63" stroke-width="0.5" stroke-linecap="round"/>
</svg>
