<svg width="15" height="15" viewBox="0 0 15 15" fill="none" xmlns="http://www.w3.org/2000/svg">
<path d="M7.5 3C5.025 3 3 5.025 3 7.5C3 9.975 5.025 12 7.5 12C9.975 12 12 9.975 12 7.5C12 5.025 9.975 3 7.5 3ZM9.58125 7.95C9.46875 8.0625 9.35625 8.11875 9.1875 8.11875C9.01875 8.11875 8.90625 8.0625 8.79375 7.95L8.0625 7.21875L8.0625 9.75C8.0625 10.0875 7.8375 10.3125 7.5 10.3125C7.1625 10.3125 6.9375 10.0875 6.9375 9.75L6.9375 7.21875L6.20625 7.95C5.98125 8.175 5.64375 8.175 5.41875 7.95C5.19375 7.725 5.19375 7.3875 5.41875 7.1625L7.10625 5.41875C7.21875 5.30625 7.33125 5.25 7.5 5.25C7.66875 5.25 7.78125 5.30625 7.89375 5.41875L9.58125 7.1625C9.80625 7.3875 9.80625 7.725 9.58125 7.95Z" fill="#284B63"/>
<path fill-rule="evenodd" clip-rule="evenodd" d="M7.5 15C11.6421 15 15 11.6421 15 7.5C15 3.35784 11.6421 9.53674e-07 7.5 9.53674e-07C3.35784 9.53674e-07 9.53674e-07 3.35784 9.53674e-07 7.5C9.53674e-07 11.6421 3.35784 15 7.5 15ZM13.9535 7.5C13.9535 11.0642 11.0642 13.9535 7.5 13.9535C3.93586 13.9535 1.04651 11.0642 1.04651 7.5C1.04651 3.93586 3.93586 1.04651 7.5 1.04651C11.0642 1.04651 13.9535 3.93586 13.9535 7.5Z" fill="#284B63"/>
</svg>
